<?xml version="1.0" encoding="UTF-8"?>
<svg version="1.1" viewBox="0 0 20 20" xmlns="http://www.w3.org/2000/svg">
  <title>青姫</title>
  <path d="m9.6165 3.79e-6c-4.0565 0-7.3447 3.4388-7.3447 7.6806 0 0.84073 0.13081 1.6493 0.3698 2.4063-0.6696-0.01699-1.4446-0.12732-2.0282-0.12732-0.81007 0-1.0157 1.3902 0.62517 2.4346 1.6409 1.0446 4.2712 1.6737 4.2712 1.6737l-0.011906-0.02648 0.028857 0.02015-0.016951 0.0074c1.985 1.2849 2.0508 5.0639 0 5.931 0 0 8.0291-1.344 10.866-9.274 0.42523-0.27839 1.8137-1.3571 2.9155-2.7158 1.2423-1.5324 0.62795-2.7831-0.14092-2.516l-5.75e-4 -5.909e-4c-0.8728 0.30323-1.5647 0.79699-2.3124 0.79226-0.62805-3.575-3.621-6.2847-7.2212-6.2847zm2.1196 3.6066c1.4786-0.012354 2.1941 0.412 1.7898 1.5775-0.28563 0.82345-0.80122 1.5782-1.7898 1.5781-0.98858 9.74e-5 -1.705-0.10977-1.7898-1.5781-0.050256-0.8699 0.80149-1.5776 1.7898-1.5775zm-5.4325 1.403c0.98858-9.74e-5 1.5146 0.75111 1.7898 1.5781 0.35525 1.0674-0.53185 1.4918-1.7898 1.5775-0.98808-1.947e-4 -1.5648-0.73575-1.7892-1.5775-0.34337-1.2881 0.80085-1.5779 1.7892-1.5781zm7.0374 3.4179c-0.24525 1.1342-0.83513 3.6131-3.8519 3.6131v-5.91e-4c-1.4359 0.01203-2.3086-1.0076-2.7892-2.2737 0.80853 0.68321 1.8275 1.0594 2.8687 1.0594 1.6571 0 2.9654-0.88302 3.7724-2.3981z" fill="#00008b" stroke-width="1.1156"/>
</svg>
